<svg data-v-423bf9ae="" xmlns="http://www.w3.org/2000/svg" viewBox="0 0 29330136.453862846 22787517" class="iconAbove"><!----><!----><!----><g data-v-423bf9ae="" id="ffe313b6-993e-44a6-abb1-aa8b2e58fd87" fill="#361C00" transform="matrix(5.922923970739431,0,0,5.922923970739431,14664873.257330647,22787438.10002507)"><path d="M2.87 3.74L2.87 7.50L3.98 7.50L3.98 7.50Q4.59 7.50 4.98 6.86L4.98 6.86L4.98 6.86Q5.33 6.30 5.33 5.58L5.33 5.58L5.33 5.58Q5.33 4.35 4.50 3.84L4.50 3.84L4.50 3.85L4.50 3.85Q4.29 3.74 3.71 3.74L3.71 3.74L2.87 3.74ZM2.87 12.30L4.02 12.30L4.02 12.30Q4.75 12.30 5.04 12.14L5.04 12.14L5.04 12.14Q5.44 11.90 5.71 11.31L5.71 11.31L5.71 11.31Q5.85 11.03 5.91 10.76L5.91 10.76L5.91 10.76Q5.97 10.49 5.97 10.21L5.97 10.21L5.97 10.21Q5.97 9.63 5.69 9.06L5.69 9.06L5.69 9.06Q5.39 8.46 4.92 8.25L4.92 8.25L4.92 8.25Q4.79 8.20 4.58 8.18L4.58 8.18L4.58 8.18Q4.38 8.15 4.09 8.15L4.09 8.15L2.87 8.15L2.87 12.30ZM0.46 3.04L3.55 3.04L3.55 3.04Q4.16 3.04 4.61 3.08L4.61 3.08L4.61 3.08Q5.06 3.12 5.37 3.21L5.37 3.21L5.37 3.21Q5.84 3.36 6.19 3.66L6.19 3.66L6.19 3.66Q6.54 3.96 6.76 4.39L6.76 4.39L6.76 4.39Q6.90 4.68 6.97 4.98L6.97 4.98L6.97 4.98Q7.04 5.28 7.04 5.60L7.04 5.60L7.04 5.60Q7.04 6.28 6.77 6.80L6.77 6.80L6.77 6.80Q6.49 7.31 6.00 7.66L6.00 7.66L6.00 7.66Q6.70 7.94 7.15 8.55L7.15 8.55L7.15 8.55Q7.42 8.91 7.55 9.33L7.55 9.33L7.55 9.33Q7.68 9.74 7.68 10.21L7.68 10.21L7.68 10.21Q7.68 11.53 6.79 12.30L6.79 12.30L6.79 12.30Q5.95 13.01 4.62 13.01L4.62 13.01L0.46 13.01L0.46 12.30L1.16 12.30L1.16 3.74L0.46 3.74L0.46 3.04ZM10.97 3.74L10.97 7.50L12.08 7.50L12.08 7.50Q12.69 7.50 13.08 6.86L13.08 6.86L13.08 6.86Q13.43 6.30 13.43 5.58L13.43 5.58L13.43 5.58Q13.43 4.35 12.60 3.84L12.60 3.84L12.61 3.85L12.61 3.85Q12.39 3.74 11.81 3.74L11.81 3.74L10.97 3.74ZM10.97 12.30L12.12 12.30L12.12 12.30Q12.85 12.30 13.14 12.14L13.14 12.14L13.14 12.14Q13.54 11.90 13.82 11.31L13.82 11.31L13.82 11.31Q13.95 11.03 14.01 10.76L14.01 10.76L14.01 10.76Q14.07 10.49 14.07 10.21L14.07 10.21L14.07 10.21Q14.07 9.63 13.79 9.06L13.79 9.06L13.79 9.06Q13.49 8.46 13.02 8.25L13.02 8.25L13.02 8.25Q12.89 8.20 12.68 8.18L12.68 8.18L12.68 8.18Q12.48 8.15 12.19 8.15L12.19 8.15L10.97 8.15L10.97 12.30ZM8.57 3.04L11.65 3.04L11.65 3.04Q12.26 3.04 12.71 3.08L12.71 3.08L12.71 3.08Q13.16 3.12 13.47 3.21L13.47 3.21L13.47 3.21Q13.95 3.36 14.29 3.66L14.29 3.66L14.29 3.66Q14.64 3.96 14.86 4.39L14.86 4.39L14.86 4.39Q15.00 4.68 15.07 4.98L15.07 4.98L15.07 4.98Q15.14 5.28 15.14 5.60L15.14 5.60L15.14 5.60Q15.14 6.28 14.87 6.80L14.87 6.80L14.87 6.80Q14.59 7.31 14.10 7.66L14.10 7.66L14.10 7.66Q14.80 7.94 15.25 8.55L15.25 8.55L15.25 8.55Q15.52 8.91 15.65 9.33L15.65 9.33L15.65 9.33Q15.78 9.74 15.78 10.21L15.78 10.21L15.78 10.21Q15.78 11.53 14.89 12.30L14.89 12.30L14.89 12.30Q14.05 13.01 12.72 13.01L12.72 13.01L8.57 13.01L8.57 12.30L9.26 12.30L9.26 3.74L8.57 3.74L8.57 3.04ZM16.98 5.74L16.71 3.78L16.71 3.78Q16.78 3.03 17.40 3.04L17.40 3.04L17.40 3.04Q18.02 3.04 18.08 3.79L18.08 3.79L17.81 5.75L16.98 5.74ZM19.99 11.08L19.99 11.44L19.99 11.44Q20.13 11.70 20.28 11.90L20.28 11.90L20.28 11.90Q20.43 12.11 20.58 12.22L20.58 12.22L20.58 12.22Q20.95 12.52 21.51 12.52L21.51 12.52L21.51 12.52Q22.05 12.52 22.44 12.20L22.44 12.20L22.44 12.20Q22.84 11.85 22.84 11.35L22.84 11.35L22.84 11.35Q22.84 11.07 22.61 10.83L22.61 10.83L22.61 10.83Q22.38 10.58 22.00 10.39L22.00 10.39L22.00 10.39Q21.79 10.29 21.58 10.21L21.58 10.21L21.58 10.21Q21.37 10.12 21.16 10.02L21.16 10.02L21.16 10.02Q20.94 9.93 20.72 9.84L20.72 9.84L20.72 9.84Q20.51 9.75 20.30 9.65L20.30 9.65L20.30 9.65Q19.31 9.05 19.31 8.00L19.31 8.00L19.31 8.00Q19.31 7.55 19.54 7.19L19.54 7.19L19.54 7.19Q19.76 6.82 20.17 6.54L20.17 6.54L20.17 6.54Q20.53 6.32 20.95 6.20L20.95 6.20L20.95 6.20Q21.37 6.08 21.83 6.08L21.83 6.08L21.83 6.08Q21.96 6.08 22.17 6.13L22.17 6.13L22.17 6.13Q22.38 6.17 22.62 6.25L22.62 6.25L22.62 6.25Q22.84 6.32 23.03 6.36L23.03 6.36L23.03 6.36Q23.21 6.40 23.32 6.40L23.32 6.40L23.32 6.40Q23.49 6.40 23.58 6.27L23.58 6.27L24.18 6.27L24.18 8.20L23.52 8.20L23.52 7.83L23.52 7.83Q22.96 6.76 22.07 6.76L22.07 6.76L22.07 6.76Q21.55 6.76 21.22 7.08L21.22 7.08L21.22 7.08Q20.88 7.38 20.88 7.89L20.88 7.89L20.88 7.89Q20.88 8.33 21.29 8.55L21.29 8.55L21.29 8.54L21.29 8.54Q21.40 8.60 21.79 8.75L21.79 8.75L21.79 8.75Q22.17 8.91 22.84 9.15L22.84 9.15L22.84 9.15Q24.36 9.73 24.36 11.25L24.36 11.25L24.36 11.25Q24.36 11.76 24.09 12.16L24.09 12.16L24.09 12.16Q23.83 12.55 23.38 12.80L23.38 12.80L23.38 12.80Q23.02 12.96 22.55 13.06L22.55 13.06L22.55 13.06Q22.07 13.17 21.55 13.17L21.55 13.17L21.55 13.17Q21.42 13.17 21.24 13.13L21.24 13.13L21.24 13.13Q21.06 13.10 20.82 13.02L20.82 13.02L20.82 13.02Q20.60 12.94 20.44 12.91L20.44 12.91L20.44 12.91Q20.28 12.88 20.18 12.88L20.18 12.88L20.18 12.88Q20.01 12.88 19.92 13.01L19.92 13.01L19.32 13.01L19.32 11.08L19.99 11.08ZM32.25 3.74L32.25 7.50L33.36 7.50L33.36 7.50Q33.97 7.50 34.36 6.86L34.36 6.86L34.36 6.86Q34.71 6.30 34.71 5.58L34.71 5.58L34.71 5.58Q34.71 4.35 33.88 3.84L33.88 3.84L33.89 3.85L33.89 3.85Q33.67 3.74 33.09 3.74L33.09 3.74L32.25 3.74ZM32.25 12.30L33.40 12.30L33.40 12.30Q34.13 12.30 34.42 12.14L34.42 12.14L34.42 12.14Q34.82 11.90 35.10 11.31L35.10 11.31L35.10 11.31Q35.23 11.03 35.29 10.76L35.29 10.76L35.29 10.76Q35.35 10.49 35.35 10.21L35.35 10.21L35.35 10.21Q35.35 9.63 35.07 9.06L35.07 9.06L35.07 9.06Q34.77 8.46 34.30 8.25L34.30 8.25L34.30 8.25Q34.17 8.20 33.96 8.18L33.96 8.18L33.96 8.18Q33.76 8.15 33.47 8.15L33.47 8.15L32.25 8.15L32.25 12.30ZM29.85 3.04L32.93 3.04L32.93 3.04Q33.54 3.04 33.99 3.08L33.99 3.08L33.99 3.08Q34.44 3.12 34.75 3.21L34.75 3.21L34.75 3.21Q35.23 3.36 35.57 3.66L35.57 3.66L35.57 3.66Q35.92 3.96 36.14 4.39L36.14 4.39L36.14 4.39Q36.28 4.68 36.35 4.98L36.35 4.98L36.35 4.98Q36.42 5.28 36.42 5.60L36.42 5.60L36.42 5.60Q36.42 6.28 36.15 6.80L36.15 6.80L36.15 6.80Q35.88 7.31 35.38 7.66L35.38 7.66L35.38 7.66Q36.08 7.94 36.53 8.55L36.53 8.55L36.53 8.55Q36.80 8.91 36.93 9.33L36.93 9.33L36.93 9.33Q37.06 9.74 37.06 10.21L37.06 10.21L37.06 10.21Q37.06 11.53 36.17 12.30L36.17 12.30L36.17 12.30Q35.33 13.01 34.00 13.01L34.00 13.01L29.85 13.01L29.85 12.30L30.54 12.30L30.54 3.74L29.85 3.74L29.85 3.04ZM38.24 6.53L40.00 6.53L40.00 12.61L40.67 12.61L40.67 12.74L38.24 12.74L38.24 12.61L38.94 12.61L38.94 6.67L38.24 6.67L38.24 6.53ZM38.58 4.03L38.58 4.03L38.58 4.03Q38.58 3.84 38.65 3.68L38.65 3.68L38.65 3.68Q38.72 3.51 38.84 3.39L38.84 3.39L38.84 3.39Q38.96 3.27 39.12 3.20L39.12 3.20L39.12 3.20Q39.29 3.12 39.47 3.12L39.47 3.12L39.47 3.12Q39.66 3.12 39.82 3.20L39.82 3.20L39.82 3.20Q39.98 3.27 40.10 3.39L40.10 3.39L40.10 3.39Q40.22 3.51 40.29 3.68L40.29 3.68L40.29 3.68Q40.37 3.84 40.37 4.03L40.37 4.03L40.37 4.03Q40.37 4.21 40.29 4.38L40.29 4.38L40.29 4.38Q40.22 4.54 40.10 4.66L40.10 4.66L40.10 4.66Q39.98 4.78 39.82 4.85L39.82 4.85L39.82 4.85Q39.66 4.92 39.47 4.92L39.47 4.92L39.47 4.92Q39.29 4.92 39.12 4.85L39.12 4.85L39.12 4.85Q38.96 4.78 38.84 4.66L38.84 4.66L38.84 4.66Q38.72 4.54 38.65 4.38L38.65 4.38L38.65 4.38Q38.58 4.21 38.58 4.03ZM42.81 11.08L42.81 11.44L42.81 11.44Q42.96 11.70 43.11 11.90L43.11 11.90L43.11 11.90Q43.26 12.11 43.40 12.22L43.40 12.22L43.40 12.22Q43.78 12.52 44.33 12.52L44.33 12.52L44.33 12.52Q44.88 12.52 45.26 12.20L45.26 12.20L45.26 12.20Q45.66 11.85 45.66 11.35L45.66 11.35L45.66 11.35Q45.66 11.07 45.44 10.83L45.44 10.83L45.44 10.83Q45.21 10.58 44.83 10.39L44.83 10.39L44.83 10.39Q44.62 10.29 44.41 10.21L44.41 10.21L44.41 10.21Q44.19 10.12 43.98 10.02L43.98 10.02L43.98 10.02Q43.76 9.93 43.55 9.84L43.55 9.84L43.55 9.84Q43.33 9.75 43.12 9.65L43.12 9.65L43.12 9.65Q42.14 9.05 42.14 8.00L42.14 8.00L42.14 8.00Q42.14 7.55 42.36 7.19L42.36 7.19L42.36 7.19Q42.59 6.82 43.00 6.54L43.00 6.54L43.00 6.54Q43.35 6.32 43.77 6.20L43.77 6.20L43.77 6.20Q44.19 6.08 44.66 6.08L44.66 6.08L44.66 6.08Q44.79 6.08 45.00 6.13L45.00 6.13L45.00 6.13Q45.21 6.17 45.45 6.25L45.45 6.25L45.45 6.25Q45.66 6.32 45.85 6.36L45.85 6.36L45.85 6.36Q46.04 6.40 46.15 6.40L46.15 6.40L46.15 6.40Q46.31 6.40 46.41 6.27L46.41 6.27L47.00 6.27L47.00 8.20L46.34 8.20L46.34 7.83L46.34 7.83Q45.79 6.76 44.90 6.76L44.90 6.76L44.90 6.76Q44.38 6.76 44.04 7.08L44.04 7.08L44.04 7.08Q43.71 7.38 43.71 7.89L43.71 7.89L43.71 7.89Q43.71 8.33 44.12 8.55L44.12 8.55L44.12 8.54L44.12 8.54Q44.23 8.60 44.61 8.75L44.61 8.75L44.61 8.75Q44.99 8.91 45.66 9.15L45.66 9.15L45.66 9.15Q47.18 9.73 47.18 11.25L47.18 11.25L47.18 11.25Q47.18 11.76 46.92 12.16L46.92 12.16L46.92 12.16Q46.66 12.55 46.20 12.80L46.20 12.80L46.20 12.80Q45.85 12.96 45.37 13.06L45.37 13.06L45.37 13.06Q44.90 13.17 44.38 13.17L44.38 13.17L44.38 13.17Q44.25 13.17 44.07 13.13L44.07 13.13L44.07 13.13Q43.89 13.10 43.65 13.02L43.65 13.02L43.65 13.02Q43.43 12.94 43.27 12.91L43.27 12.91L43.27 12.91Q43.11 12.88 43.00 12.88L43.00 12.88L43.00 12.88Q42.83 12.88 42.75 13.01L42.75 13.01L42.14 13.01L42.14 11.08L42.81 11.08ZM51.76 6.27L51.76 6.93L50.59 6.93L50.59 11.39L50.59 11.39Q50.59 11.99 50.80 12.15L50.80 12.15L50.80 12.15Q50.98 12.29 51.76 12.35L51.76 12.35L51.76 13.02L51.76 13.02Q51.10 13.00 50.65 12.95L50.65 12.95L50.65 12.95Q50.21 12.91 49.98 12.84L49.98 12.84L49.98 12.84Q49.01 12.53 49.01 11.55L49.01 11.55L49.01 6.93L47.97 6.93L47.97 6.27L47.97 6.27Q48.80 6.27 49.38 5.61L49.38 5.61L49.38 5.61Q49.64 5.33 49.83 4.97L49.83 4.97L49.83 4.97Q50.02 4.61 50.16 4.16L50.16 4.16L50.59 4.16L50.59 6.27L51.76 6.27ZM52.55 6.27L54.80 6.27L54.80 6.55L54.80 6.55Q55.39 6.15 56.23 6.15L56.23 6.15L56.23 6.15Q57.41 6.15 58.24 6.88L58.24 6.88L57.27 7.99L57.27 7.99Q56.82 6.83 56.07 6.83L56.07 6.83L56.07 6.83Q55.32 6.83 54.80 7.49L54.80 7.49L54.80 7.49Q54.81 8.74 54.81 9.92L54.81 9.92L54.81 9.92Q54.82 11.09 54.82 12.35L54.82 12.35L55.51 12.35L55.51 13.01L52.55 13.01L52.55 12.35L53.24 12.35L53.24 6.93L52.55 6.93L52.55 6.27ZM60.46 9.67L60.46 9.67L60.46 9.67Q60.46 10.78 60.78 11.51L60.78 11.51L60.78 11.51Q61.19 12.50 62.06 12.50L62.06 12.50L62.06 12.50Q62.49 12.50 62.82 12.24L62.82 12.24L62.82 12.24Q63.14 11.99 63.35 11.52L63.35 11.52L63.35 11.52Q63.50 11.15 63.58 10.68L63.58 10.68L63.58 10.68Q63.66 10.22 63.66 9.69L63.66 9.69L63.66 9.69Q63.66 8.58 63.35 7.81L63.35 7.81L63.35 7.81Q62.92 6.77 62.07 6.77L62.07 6.77L62.07 6.77Q61.63 6.77 61.30 7.04L61.30 7.04L61.30 7.04Q60.98 7.31 60.77 7.78L60.77 7.78L60.77 7.78Q60.63 8.15 60.55 8.63L60.55 8.63L60.55 8.63Q60.46 9.12 60.46 9.67ZM65.25 9.64L65.25 9.64L65.25 9.64Q65.25 11.51 64.44 12.34L64.44 12.34L64.44 12.34Q63.65 13.15 61.80 13.15L61.80 13.15L61.80 13.15Q58.87 13.15 58.87 9.64L58.87 9.64L58.87 9.64Q58.87 6.11 62.23 6.11L62.23 6.11L62.23 6.11Q65.25 6.11 65.25 9.64Z"></path></g><defs data-v-423bf9ae=""><linearGradient data-v-423bf9ae="" gradientTransform="rotate(25)" id="c0b501de-fa25-4416-b27e-e085c94426f7" x1="0%" y1="0%" x2="100%" y2="0%"><stop data-v-423bf9ae="" offset="0%" style="stop-color: rgb(235, 76, 0); stop-opacity: 1;"></stop><stop data-v-423bf9ae="" offset="100%" style="stop-color: rgb(242, 169, 0); stop-opacity: 1;"></stop></linearGradient></defs><g data-v-423bf9ae="" id="45fb2599-721b-4f13-bd97-74487f68838b" transform="matrix(503.18368055555555,0,0,503.18368055555555,-432705.875418853,-3702652.7900744975)" stroke="none" fill="url(#c0b501de-fa25-4416-b27e-e085c94426f7)"><path d="M51703 30246c183 24 364 37 543 41 1510 32 2929-599 4022-1494 1088-891 1842-2031 2032-3029 8-44 16-88 22-131-546-173-1111-222-1671-170-1008 95-2000 517-2830 1138-829 620-1492 1435-1844 2314-174 435-272 884-274 1332zM3368 26704c-94-129-181-261-264-398l-429 257c90 149 186 294 289 435l404-294zm3092 2237c-150-64-300-130-448-199l-213 452c154 72 309 141 466 207l195-460zm-1716-917c-132-91-261-187-386-288l-315 388c134 109 273 212 415 310l285-411zm20035-6222c201-90 437 1 527 202s-1 437-202 527l-1222 546c-201 90-437-1-527-202s1-437 202-527l1222-546zm564 1282c183-123 431-74 553 109 123 183 74 431-109 553l-1448 974c-183 123-431 74-553-109-123-183-74-431 109-553l1448-974zm763 1158c158-154 410-150 564 8s150 410-8 564l-1223 1193c-158 154-410 150-564-8s-150-410 8-564l1223-1193zm1014 946c112-190 357-253 547-141s253 357 141 547l-1016 1712c-112 190-357 253-547 141s-253-357-141-547l1016-1712zm1225 649c60-212 280-336 492-277 212 60 336 280 277 492l-539 1916c-60 212-280 336-492 277-212-60-336-280-277-492l539-1916zm329-16194l-5-53c-17-181-37-404-82-614-64-295-179-557-419-505-459 99-779 102-1037-20-271-128-437-370-579-757-47-129 19-273 148-320s273 19 320 148c96 260 190 415 323 478 146 69 372 58 721-18 635-137 893 341 1011 890 43 200 66 412 83 595 237-62 481-92 725-92 50 0 96 1 136 3 40-2 86-3 136-3 285 0 574 40 854 124 18-190 40-415 86-627 118-549 376-1027 1011-890 349 75 575 87 721 18 133-63 228-217 323-478 47-129 191-196 320-148 129 47 196 191 148 320-142 387-309 629-579 757-258 122-578 118-1037 20-240-52-356 210-419 505-45 210-66 433-82 614-3 35-6 69-9 100 241 121 470 278 678 472 565 528 969 1325 1027 2416 1 17 2 35 2 53l2374-2684c5-7 10-13 16-20 126-158 307-320 510-462 243-170 524-318 778-400 335-109 655-110 878 62 48 37 91 82 129 135 75 106 143 264 175 423 25 123 31 253 8 373-32 165-113 312-263 417-70 49-152 85-247 104-26 5-52 8-78 8v2c-246 0-446-74-646-148-217-80-434-160-665 37l-2489 2814c148 179 277 375 384 587 646-223 1463-597 2362-1009 2120-971 4676-2142 6783-2144 1261-1 2417 687 3117 1652 342 471 577 1011 667 1574 91 572 31 1164-222 1727-448 996-1493 1890-3365 2389-189 50-830 399-1042 515l-17 9c-146 80-291 149-435 209 22 233 2 465-53 690-104 427-335 822-637 1136-304 316-684 554-1084 660-280 75-570 85-853 16l-8-2c-28 57-59 111-94 164-194 291-494 509-836 632-331 119-705 152-1058 77-209-44-411-125-595-248-504-335-1470-1414-2372-2637-768-1041-1502-2199-1877-3102-48-116-84-231-110-345-99-443-15-814 168-1106 179-287 451-491 737-609 14-6 29-12 43-17-294-502-775-878-1349-1126-556-241-1200-361-1848-361s-1292 120-1848 361c-573 248-1055 624-1349 1126 15 6 29 11 43 17 285 119 557 322 737 609 183 293 267 664 168 1106-26 114-62 229-110 345-375 903-1109 2061-1877 3102-902 1223-1868 2302-2372 2637-184 122-386 203-595 248-353 75-727 43-1058-77-342-123-643-341-836-632-35-52-66-107-94-164l-8 2c-283 69-574 58-853-16-400-107-780-344-1084-660-301-314-532-709-637-1136-55-224-75-456-53-690-144-60-289-129-435-209l-17-9c-212-115-853-464-1042-515-1873-498-2918-1392-3365-2389-253-563-313-1155-222-1727 90-562 325-1103 667-1574 700-965 1855-1653 3117-1652 2107 1 4663 1172 6783 2144 899 412 1716 786 2362 1009 106-212 235-407 384-587l-2489-2814c-231-198-448-117-665-37-200 74-400 148-646 148v-2c-26 0-52-3-78-8-95-19-177-55-247-104-150-105-231-252-263-417-23-120-17-250 8-373 32-159 100-316 175-423 38-54 81-99 129-135 224-171 543-171 878-62 254 82 535 230 778 400 203 142 384 304 510 462 6 6 11 13 16 20l2374 2684c1-26 2-51 3-75 57-1078 427-1866 956-2389 224-222 476-395 744-522zm-13180 5114c2 138-108 251-245 253-138 2-251-108-253-245-9-437 220-882 578-1221 344-327 812-562 1304-600 138-10 257 93 268 230 10 138-93 257-230 268-373 29-731 211-997 464-262 249-430 560-424 852zm7452 803c128-52 273 10 325 138s-10 273-138 325c-261 106-496 214-732 321-901 412-1815 829-3223 864-138 3-252-106-255-243-3-138 106-252 243-255 1306-32 2173-428 3028-819 254-116 507-232 752-331zm-1347 5356c15 37 34 73 56 106 96 145 254 256 439 323 196 71 416 90 624 46 114-24 223-67 320-132 408-271 1218-1177 2023-2247-438-282-1838 734-2855 1473-219 159-422 307-607 432zm3932-2551c362-514 702-1040 981-1532-846-228-1851 332-2940 939-1371 764-2860 1594-4520 1268 4 88 16 175 37 261 70 285 228 554 437 770 206 214 456 373 712 441 157 42 315 49 463 13 131-32 540-329 1036-689 1222-887 2890-2098 3794-1471zm1356-2251c37-80 72-159 104-235 32-78 55-148 69-211 48-214 13-384-68-513-84-134-220-233-365-294-53-22-103-38-149-48-781-174-1850-664-3062-1220-2049-939-4519-2071-6451-2072-993-1-1909 550-2470 1324-271 374-457 796-526 1230-68 424-23 862 163 1277 355 791 1232 1514 2840 1942 279 74 987 459 1221 587l17 9c1778 968 3458 31 4976-815 1306-728 2506-1397 3702-962zm8156 6406c-195-103-270-344-167-539s344-270 539-167l1188 624c195 103 270 344 167 539s-344 270-539 167l-1188-624zm-659 1227c-183-123-232-370-109-553s370-232 553-109l1448 974c183 123 232 370 109 553s-370 232-553 109l-1448-974zm-875 1067c-158-154-161-406-8-564 154-158 406-161 564-8l1223 1193c158 154 161 406 8 564-154 158-406 161-564 8l-1223-1193zm-1145 780c-112-190-49-435 141-547s435-49 547 141l1016 1712c112 190 49 435-141 547s-435 49-547-141l-1016-1712zm-1306 459c-60-212 64-433 277-492 212-60 433 64 492 277l539 1916c60 212-64 433-277 492-212 60-433-64-492-277l-539-1916zm-1380 105c-3-220 174-401 394-403 220-3 401 174 403 394l25 1990c3 220-174 401-394 403-220 3-401-174-403-394l-25-1990zm2694-13852c-95-699-374-1213-744-1559-417-390-953-573-1471-573-32 0-71 1-116 4-15 1-29 1-44 0-44-2-82-3-113-3-507 0-1007 179-1391 558-351 347-609 866-696 1576 42-19 83-38 126-57 662-287 1415-430 2163-430s1501 143 2163 430c41 18 82 36 122 55zm12804 2460c-2 138-115 247-253 245s-247-115-245-253c6-292-162-604-424-852-266-253-625-435-997-464-138-10-241-130-230-268 10-138 130-241 268-230 492 38 960 274 1304 600 358 340 587 785 578 1221zm-8137 1258c-128-52-189-197-138-325 52-128 197-189 325-138 244 99 498 215 752 331 855 391 1722 787 3028 819 138 3 246 117 243 255s-117 246-255 243c-1408-34-2322-452-3223-864-236-108-471-215-732-321zm4081 3017c-1660 326-3149-504-4520-1268-1089-607-2094-1167-2940-939 279 492 620 1018 981 1532 904-626 2572 584 3794 1471 496 360 905 657 1036 689 148 36 306 29 463-13 256-68 506-227 712-441 208-217 367-486 437-770 21-86 34-173 37-261zm-6009-29c805 1071 1615 1976 2023 2247 97 64 206 108 320 132 208 44 428 25 624-46 185-67 343-178 439-323 22-33 41-69 56-106-184-126-388-274-607-432-1017-738-2417-1754-2855-1473zm-1929-3132c32 76 66 155 104 235 1196-435 2396 234 3702 962 1518 846 3198 1782 4976 815l17-9c234-127 941-512 1221-587 1608-428 2485-1150 2840-1942 186-415 230-852 163-1277-69-434-255-856-526-1230-561-774-1477-1324-2470-1324-1932 1-4403 1133-6451 2072-1212 556-2282 1046-3062 1220-46 10-96 26-149 48-145 60-281 159-365 294-80 129-115 299-68 513 14 63 37 133 69 211zM7772 31085c-1719 36-3320-670-4544-1672-1229-1006-2087-2324-2310-3501-34-182-54-363-58-542-3-170 101-318 250-378 751-301 1538-394 2314-321 1161 109 2294 589 3236 1294 943 705 1700 1639 2107 2654 170 425 274 804 311 1248 37 448 61 568 391 888 461 447 803 732 1301 1125-299-463-528-972-678-1506-269-957-286-1996 1-3001 234-818 669-1613 1333-2321l11-11c157-154 410-152 564 5 1032 1047 1665 2373 2011 3760 419 1680 413 3451 187 4909-2 27-7 53-14 80-3 10-6 20-10 29 396 377 828 710 1282 998 1043 541 2113 1049 3189 1555-673-664-1161-1503-1418-2417-269-957-286-1996 1-3001 234-818 669-1613 1333-2321l11-11c157-154 410-152 564 5 1032 1047 1665 2373 2011 3760 407 1631 413 3349 206 4782 690 627 1485 1161 2252 1645 2290 1245 4483 2703 6398 4686 1916-1984 4109-3441 6399-4686 767-484 1561-1018 2251-1645-207-1433-200-3151 206-4782 345-1386 978-2713 2011-3760 154-157 407-159 564-5l11 11c664 709 1099 1504 1333 2321 287 1005 270 2044 1 3001-257 914-745 1754-1418 2417 1076-506 2145-1014 3189-1555 454-288 886-621 1282-998-4-10-7-19-10-29-8-27-12-53-14-80-226-1458-231-3230 187-4909 345-1386 978-2713 2011-3760 154-157 407-159 564-5l11 11c664 709 1099 1504 1333 2321 287 1005 270 2044 1 3001-150 534-379 1043-678 1506 480-380 822-666 1269-1095 401-386 370-408 426-943 43-415 149-825 309-1222 407-1015 1164-1949 2107-2654 942-705 2075-1185 3236-1294 775-73 1562 20 2314 321 149 60 253 207 250 378-4 179-23 361-58 542-224 1176-1082 2495-2310 3501-1224 1002-2825 1708-4544 1672-647-14-653-224-1107 209-1058 1010-2207 1871-3415 2640 218 3 436 19 653 48 986 130 1948 525 2758 1185 656 534 1211 1242 1599 2122 5 10 10 21 14 32 80 205-21 437-227 517-1369 535-2837 593-4247 364-1723-281-3360-993-4614-1783-13-9-26-18-39-28-45-37-80-81-104-129-187 78-373 159-556 242-317 152-636 303-955 454-117 57-232 114-347 171-83 41-167 83-402 198-28 14-57 21-85 24-450 212-901 424-1352 639 188 6 377 21 564 46 986 130 1948 525 2758 1185 656 534 1211 1242 1599 2122 5 10 10 21 14 32 80 205-21 437-227 517-1369 535-2837 593-4247 364-1700-277-3318-974-4565-1752-693 271-1363 595-1993 904-1112 783-2174 1664-3158 2687 1822 2045 3360 4624 4446 8030 66 210-50 434-259 500-210 66-434-50-500-259-1033-3239-2499-5706-4238-7673-1739 1966-3205 4434-4238 7673-66 210-290 326-500 259-210-66-326-290-259-500 1086-3406 2625-5984 4447-8030-984-1023-2045-1904-3157-2686-631-310-1302-634-1995-905-1247 778-2865 1475-4565 1752-1410 230-2878 172-4247-364-205-80-307-312-227-517 4-11 9-22 14-32 388-880 944-1588 1599-2122 810-661 1772-1055 2758-1185 188-25 376-40 564-46-450-215-901-427-1352-639-29-3-58-11-85-24-235-115-320-157-402-198-114-56-230-113-347-171-319-151-638-302-955-454-183-83-369-164-556-242-25 49-59 93-104 129-13 10-26 20-39 28-1254 790-2891 1502-4614 1783-1410 230-2878 172-4247-364-205-80-307-312-227-517 4-11 9-22 14-32 388-880 944-1588 1599-2122 810-661 1772-1055 2758-1185 217-29 435-45 653-48-1211-771-2363-1635-3423-2649-442-423-465-214-1098-201zm-16-797c179-4 360-17 543-41-3-448-100-897-274-1332-352-879-1015-1693-1844-2314-830-621-1821-1043-2830-1138-560-53-1126-3-1671 170 6 43 13 87 22 131 190 998 944 2138 2032 3029 1093 895 2512 1526 4022 1494zm3858 7127c1428-233 2796-785 3908-1424-48-48-97-94-148-139-1609-493-3290-557-4831 628-109 84-265 64-350-45-84-109-64-265 45-350 1248-960 2554-1186 3838-1033-736-291-1544-385-2335-280-843 111-1665 449-2358 1014-466 380-874 864-1190 1452 1107 343 2281 362 3419 177zm7993 4053c1339-218 2625-717 3697-1305-1590-459-3248-487-4769 684-109 84-265 64-350-45-84-109-64-265 45-350 1515-1166 3117-1264 4661-916-215-144-441-267-675-369-774-338-1637-452-2480-341s-1665 449-2358 1014c-466 380-874 864-1190 1452 1107 343 2281 362 3419 177zm-6128-8397c138-1256 100-2700-244-4076-279-1118-759-2189-1511-3071-415 523-698 1088-864 1667-246 860-231 1748-1 2567s676 1566 1292 2144c126 118 259 229 399 332-144-227-278-464-400-709-630-1266-945-2765-783-4471 13-137 135-238 271-225 137 13 238 135 225 271-153 1605 143 3013 734 4201 246 495 544 952 881 1369zm7158 3365c111-1203 58-2560-266-3857-279-1118-759-2189-1511-3071-415 523-698 1088-864 1667-246 860-231 1748-1 2567s676 1566 1292 2144c207 194 433 368 677 520-742-998-1188-2201-1044-3711 13-137 135-238 271-225 137 13 238 135 225 271-144 1517 386 2710 1220 3694zm36123-9436c103-141 198-286 289-435l-429-257c-83 137-170 269-264 398l404 294zm-3301 2403c156-66 312-135 466-207l-213-452c-148 70-298 136-448 199l195 460zm1805-966c142-98 281-202 415-310l-315-388c-125 101-254 197-386 288l285 411zm-9337 6616c1284-153 2590 72 3838 1033 109 84 129 241 45 350s-241 129-350 45c-1540-1186-3222-1121-4831-628-50 45-99 91-148 139 1112 639 2480 1192 3908 1424 1138 185 2312 166 3419-177-317-588-724-1072-1190-1452-693-565-1515-902-2358-1014-791-105-1599-11-2335 280zm-8814 4483c1544-348 3146-250 4661 916 109 84 129 241 45 350s-241 129-350 45c-1521-1171-3179-1142-4769-684 1072 588 2358 1087 3697 1305 1138 185 2312 166 3419-177-317-588-724-1072-1190-1452-693-565-1515-902-2358-1014s-1706 3-2480 341c-234 102-460 225-675 369zm9413-6465c338-417 635-874 881-1369 591-1188 887-2596 734-4201-13-137 88-259 225-271 137-13 259 88 271 225 162 1706-153 3205-783 4471-122 245-256 482-400 709 140-103 273-214 399-332 616-577 1061-1325 1292-2144 230-818 245-1707-1-2567-165-579-449-1145-864-1667-752 881-1232 1953-1511 3071-343 1376-382 2820-244 4076zm-7158 3365c834-983 1365-2177 1220-3694-13-137 88-259 225-271 137-13 259 88 271 225 144 1510-302 2713-1044 3711 244-152 470-326 677-520 616-577 1061-1325 1292-2144 230-818 245-1707-1-2567-165-579-449-1145-864-1667-752 881-1232 1953-1511 3071-323 1297-376 2654-266 3857z"></path></g><!----></svg>