<?xml version="1.0" encoding="UTF-8"?>
<svg xmlns="http://www.w3.org/2000/svg" xmlns:xlink="http://www.w3.org/1999/xlink" width="32px" height="25px" viewBox="0 0 32 25" version="1.1">
<defs>
<linearGradient id="linear0" gradientUnits="userSpaceOnUse" x1="0" y1="0" x2="1" y2="0" gradientTransform="matrix(29.001849,10.557202,-13.523784,22.639993,0.000000000000000404,0.0078125)">
<stop offset="0" style="stop-color:rgb(92.156863%,29.803922%,0%);stop-opacity:1;"/>
<stop offset="1" style="stop-color:rgb(94.901961%,66.27451%,0%);stop-opacity:1;"/>
</linearGradient>
</defs>
<g id="surface1">
<path style=" stroke:none;fill-rule:nonzero;fill:url(#linear0);" d="M 27.914062 12.636719 C 28.011719 12.648438 28.113281 12.65625 28.210938 12.65625 C 29.039062 12.675781 29.816406 12.328125 30.417969 11.832031 C 31.015625 11.339844 31.429688 10.710938 31.535156 10.160156 C 31.539062 10.136719 31.542969 10.113281 31.546875 10.089844 C 31.246094 9.992188 30.9375 9.964844 30.628906 9.996094 C 30.074219 10.046875 29.53125 10.28125 29.074219 10.621094 C 28.621094 10.964844 28.257812 11.414062 28.0625 11.898438 C 27.96875 12.140625 27.914062 12.386719 27.914062 12.636719 Z M 1.375 10.679688 C 1.324219 10.609375 1.277344 10.535156 1.230469 10.460938 L 0.996094 10.601562 C 1.046875 10.683594 1.097656 10.765625 1.15625 10.839844 Z M 3.074219 11.914062 C 2.992188 11.878906 2.910156 11.84375 2.828125 11.804688 L 2.710938 12.054688 C 2.796875 12.09375 2.882812 12.132812 2.96875 12.167969 Z M 2.132812 11.40625 C 2.058594 11.359375 1.988281 11.304688 1.921875 11.25 L 1.746094 11.464844 C 1.820312 11.523438 1.898438 11.582031 1.976562 11.632812 Z M 13.132812 7.972656 C 13.242188 7.921875 13.371094 7.972656 13.421875 8.085938 C 13.46875 8.195312 13.421875 8.324219 13.308594 8.375 L 12.640625 8.675781 C 12.527344 8.726562 12.398438 8.675781 12.347656 8.566406 C 12.300781 8.453125 12.351562 8.324219 12.460938 8.273438 Z M 13.441406 8.679688 C 13.542969 8.613281 13.675781 8.640625 13.746094 8.742188 C 13.8125 8.84375 13.785156 8.980469 13.683594 9.046875 L 12.890625 9.585938 C 12.789062 9.652344 12.652344 9.625 12.585938 9.523438 C 12.519531 9.421875 12.546875 9.285156 12.644531 9.21875 Z M 13.859375 9.320312 C 13.945312 9.234375 14.085938 9.238281 14.167969 9.324219 C 14.253906 9.410156 14.25 9.550781 14.164062 9.636719 L 13.492188 10.292969 C 13.40625 10.378906 13.269531 10.378906 13.183594 10.289062 C 13.097656 10.203125 13.101562 10.0625 13.1875 9.980469 Z M 14.417969 9.84375 C 14.476562 9.738281 14.613281 9.703125 14.714844 9.765625 C 14.820312 9.828125 14.855469 9.960938 14.792969 10.066406 L 14.238281 11.011719 C 14.175781 11.117188 14.039062 11.152344 13.9375 11.089844 C 13.832031 11.027344 13.796875 10.894531 13.859375 10.789062 Z M 15.089844 10.199219 C 15.121094 10.082031 15.242188 10.015625 15.359375 10.046875 C 15.476562 10.082031 15.542969 10.203125 15.511719 10.320312 L 15.214844 11.378906 C 15.183594 11.496094 15.0625 11.5625 14.945312 11.53125 C 14.828125 11.496094 14.761719 11.375 14.792969 11.257812 Z M 15.269531 1.261719 L 15.265625 1.230469 C 15.257812 1.132812 15.246094 1.007812 15.222656 0.894531 C 15.1875 0.730469 15.125 0.585938 14.992188 0.613281 C 14.738281 0.667969 14.5625 0.671875 14.421875 0.601562 C 14.273438 0.53125 14.183594 0.398438 14.105469 0.183594 C 14.078125 0.113281 14.113281 0.0351562 14.1875 0.0078125 C 14.257812 -0.015625 14.335938 0.0195312 14.363281 0.0898438 C 14.414062 0.234375 14.464844 0.320312 14.539062 0.355469 C 14.617188 0.390625 14.742188 0.386719 14.933594 0.34375 C 15.285156 0.269531 15.425781 0.53125 15.488281 0.835938 C 15.511719 0.945312 15.527344 1.0625 15.535156 1.164062 C 15.664062 1.128906 15.800781 1.113281 15.933594 1.113281 C 15.960938 1.113281 15.984375 1.113281 16.007812 1.113281 C 16.03125 1.113281 16.054688 1.113281 16.082031 1.113281 C 16.238281 1.113281 16.398438 1.136719 16.550781 1.183594 C 16.5625 1.078125 16.574219 0.953125 16.597656 0.835938 C 16.664062 0.53125 16.804688 0.269531 17.152344 0.34375 C 17.34375 0.386719 17.46875 0.390625 17.550781 0.355469 C 17.621094 0.320312 17.675781 0.234375 17.726562 0.0898438 C 17.753906 0.0195312 17.832031 -0.0195312 17.902344 0.0078125 C 17.972656 0.0351562 18.011719 0.113281 17.984375 0.183594 C 17.90625 0.398438 17.8125 0.53125 17.664062 0.601562 C 17.523438 0.671875 17.347656 0.667969 17.097656 0.613281 C 16.964844 0.585938 16.902344 0.730469 16.867188 0.894531 C 16.84375 1.007812 16.832031 1.132812 16.820312 1.230469 C 16.820312 1.25 16.816406 1.269531 16.816406 1.285156 C 16.949219 1.355469 17.074219 1.441406 17.1875 1.546875 C 17.5 1.839844 17.722656 2.277344 17.753906 2.882812 C 17.753906 2.890625 17.753906 2.902344 17.753906 2.910156 L 19.058594 1.429688 C 19.058594 1.425781 19.0625 1.421875 19.066406 1.417969 C 19.136719 1.332031 19.234375 1.242188 19.347656 1.164062 C 19.480469 1.070312 19.632812 0.988281 19.773438 0.941406 C 19.957031 0.882812 20.132812 0.882812 20.253906 0.976562 C 20.28125 0.996094 20.304688 1.023438 20.324219 1.050781 C 20.367188 1.109375 20.402344 1.195312 20.421875 1.285156 C 20.433594 1.351562 20.4375 1.425781 20.425781 1.492188 C 20.410156 1.582031 20.363281 1.664062 20.28125 1.71875 C 20.242188 1.746094 20.199219 1.765625 20.144531 1.777344 C 20.132812 1.78125 20.117188 1.78125 20.101562 1.78125 L 20.101562 1.785156 C 19.96875 1.785156 19.859375 1.742188 19.75 1.703125 C 19.628906 1.65625 19.511719 1.613281 19.382812 1.722656 L 18.015625 3.277344 C 18.097656 3.375 18.167969 3.484375 18.226562 3.597656 C 18.582031 3.476562 19.03125 3.269531 19.523438 3.042969 C 20.6875 2.507812 22.09375 1.859375 23.25 1.859375 C 23.941406 1.859375 24.574219 2.238281 24.960938 2.769531 C 25.148438 3.03125 25.277344 3.328125 25.324219 3.640625 C 25.375 3.957031 25.34375 4.28125 25.203125 4.59375 C 24.957031 5.144531 24.382812 5.636719 23.355469 5.910156 C 23.253906 5.941406 22.902344 6.132812 22.785156 6.195312 L 22.773438 6.203125 C 22.695312 6.246094 22.617188 6.285156 22.535156 6.316406 C 22.546875 6.445312 22.539062 6.574219 22.507812 6.699219 C 22.449219 6.933594 22.324219 7.152344 22.15625 7.324219 C 21.992188 7.5 21.78125 7.628906 21.5625 7.6875 C 21.410156 7.730469 21.25 7.734375 21.09375 7.699219 L 21.089844 7.695312 C 21.074219 7.726562 21.058594 7.757812 21.039062 7.789062 C 20.933594 7.949219 20.765625 8.066406 20.578125 8.136719 C 20.398438 8.203125 20.191406 8.21875 20 8.179688 C 19.882812 8.15625 19.773438 8.109375 19.671875 8.042969 C 19.394531 7.855469 18.863281 7.261719 18.371094 6.585938 C 17.949219 6.011719 17.546875 5.371094 17.339844 4.875 C 17.3125 4.808594 17.292969 4.746094 17.277344 4.683594 C 17.222656 4.4375 17.269531 4.234375 17.371094 4.074219 C 17.46875 3.914062 17.617188 3.800781 17.777344 3.738281 C 17.785156 3.734375 17.792969 3.730469 17.800781 3.726562 C 17.636719 3.449219 17.375 3.242188 17.058594 3.105469 C 16.753906 2.972656 16.398438 2.90625 16.042969 2.90625 C 15.6875 2.90625 15.335938 2.972656 15.03125 3.105469 C 14.714844 3.242188 14.449219 3.449219 14.289062 3.726562 C 14.296875 3.730469 14.304688 3.734375 14.3125 3.738281 C 14.46875 3.800781 14.617188 3.914062 14.71875 4.074219 C 14.816406 4.234375 14.863281 4.4375 14.808594 4.683594 C 14.796875 4.746094 14.777344 4.808594 14.75 4.875 C 14.542969 5.371094 14.140625 6.011719 13.71875 6.585938 C 13.222656 7.261719 12.691406 7.855469 12.417969 8.042969 C 12.316406 8.109375 12.203125 8.152344 12.089844 8.179688 C 11.894531 8.21875 11.691406 8.203125 11.507812 8.136719 C 11.320312 8.066406 11.15625 7.949219 11.050781 7.789062 C 11.03125 7.757812 11.015625 7.726562 11 7.695312 L 10.992188 7.699219 C 10.839844 7.734375 10.679688 7.730469 10.527344 7.6875 C 10.304688 7.628906 10.097656 7.5 9.929688 7.324219 C 9.765625 7.152344 9.636719 6.933594 9.582031 6.699219 C 9.550781 6.574219 9.539062 6.445312 9.550781 6.316406 C 9.472656 6.285156 9.394531 6.246094 9.3125 6.203125 L 9.304688 6.195312 C 9.1875 6.132812 8.835938 5.941406 8.730469 5.910156 C 7.703125 5.636719 7.128906 5.144531 6.882812 4.59375 C 6.746094 4.28125 6.710938 3.957031 6.761719 3.640625 C 6.8125 3.328125 6.941406 3.03125 7.128906 2.769531 C 7.511719 2.238281 8.148438 1.859375 8.839844 1.859375 C 9.996094 1.859375 11.398438 2.507812 12.5625 3.042969 C 13.058594 3.269531 13.503906 3.476562 13.859375 3.597656 C 13.917969 3.484375 13.988281 3.375 14.070312 3.277344 L 12.703125 1.722656 C 12.578125 1.613281 12.457031 1.65625 12.339844 1.703125 C 12.230469 1.742188 12.121094 1.785156 11.984375 1.785156 L 11.984375 1.78125 C 11.972656 1.78125 11.957031 1.78125 11.941406 1.777344 C 11.890625 1.765625 11.84375 1.746094 11.804688 1.71875 C 11.722656 1.664062 11.679688 1.582031 11.664062 1.492188 C 11.648438 1.425781 11.652344 1.351562 11.667969 1.285156 C 11.683594 1.195312 11.722656 1.109375 11.761719 1.050781 C 11.785156 1.019531 11.808594 0.996094 11.832031 0.976562 C 11.957031 0.882812 12.132812 0.882812 12.316406 0.941406 C 12.453125 0.988281 12.609375 1.070312 12.742188 1.164062 C 12.855469 1.242188 12.953125 1.332031 13.023438 1.417969 C 13.027344 1.421875 13.027344 1.425781 13.03125 1.429688 L 14.335938 2.910156 C 14.335938 2.894531 14.335938 2.882812 14.335938 2.871094 C 14.367188 2.273438 14.570312 1.839844 14.859375 1.550781 C 14.984375 1.429688 15.121094 1.332031 15.269531 1.261719 Z M 8.035156 4.085938 C 8.035156 4.160156 7.976562 4.222656 7.898438 4.222656 C 7.824219 4.226562 7.761719 4.164062 7.761719 4.089844 C 7.753906 3.847656 7.882812 3.601562 8.078125 3.414062 C 8.265625 3.234375 8.523438 3.105469 8.792969 3.082031 C 8.871094 3.078125 8.933594 3.136719 8.941406 3.210938 C 8.945312 3.285156 8.890625 3.351562 8.816406 3.359375 C 8.609375 3.375 8.414062 3.476562 8.265625 3.613281 C 8.125 3.753906 8.03125 3.921875 8.035156 4.085938 Z M 12.125 4.527344 C 12.195312 4.5 12.273438 4.53125 12.304688 4.605469 C 12.332031 4.675781 12.296875 4.753906 12.226562 4.78125 C 12.085938 4.839844 11.957031 4.902344 11.824219 4.960938 C 11.332031 5.1875 10.828125 5.417969 10.054688 5.4375 C 9.980469 5.4375 9.917969 5.378906 9.917969 5.304688 C 9.914062 5.226562 9.972656 5.164062 10.050781 5.164062 C 10.765625 5.144531 11.242188 4.925781 11.710938 4.710938 C 11.851562 4.644531 11.992188 4.582031 12.125 4.527344 Z M 11.386719 7.484375 C 11.394531 7.503906 11.402344 7.523438 11.417969 7.542969 C 11.46875 7.621094 11.554688 7.683594 11.65625 7.722656 C 11.765625 7.761719 11.886719 7.769531 12 7.746094 C 12.0625 7.734375 12.121094 7.710938 12.175781 7.671875 C 12.398438 7.523438 12.84375 7.023438 13.285156 6.433594 C 13.046875 6.277344 12.277344 6.839844 11.71875 7.246094 C 11.597656 7.335938 11.488281 7.414062 11.386719 7.484375 Z M 13.542969 6.074219 C 13.742188 5.792969 13.929688 5.5 14.082031 5.230469 C 13.617188 5.105469 13.066406 5.414062 12.46875 5.75 C 11.714844 6.171875 10.898438 6.628906 9.988281 6.449219 C 9.988281 6.496094 9.996094 6.546875 10.007812 6.59375 C 10.046875 6.75 10.132812 6.898438 10.246094 7.019531 C 10.359375 7.136719 10.496094 7.222656 10.636719 7.261719 C 10.722656 7.285156 10.8125 7.289062 10.890625 7.269531 C 10.964844 7.25 11.1875 7.085938 11.460938 6.886719 C 12.132812 6.398438 13.046875 5.730469 13.542969 6.074219 Z M 14.289062 4.832031 C 14.308594 4.789062 14.328125 4.746094 14.34375 4.703125 C 14.363281 4.660156 14.375 4.621094 14.382812 4.585938 C 14.410156 4.46875 14.390625 4.375 14.347656 4.304688 C 14.300781 4.230469 14.226562 4.175781 14.144531 4.140625 C 14.117188 4.128906 14.089844 4.121094 14.0625 4.113281 C 13.636719 4.019531 13.046875 3.75 12.382812 3.441406 C 11.257812 2.921875 9.902344 2.296875 8.839844 2.296875 C 8.296875 2.296875 7.792969 2.601562 7.484375 3.027344 C 7.335938 3.234375 7.234375 3.46875 7.195312 3.707031 C 7.160156 3.941406 7.183594 4.183594 7.285156 4.414062 C 7.480469 4.847656 7.960938 5.25 8.84375 5.484375 C 9 5.527344 9.386719 5.738281 9.515625 5.808594 L 9.523438 5.8125 C 10.5 6.347656 11.421875 5.832031 12.257812 5.363281 C 12.972656 4.960938 13.632812 4.59375 14.289062 4.832031 Z M 18.765625 8.371094 C 18.660156 8.3125 18.617188 8.179688 18.675781 8.070312 C 18.730469 7.964844 18.863281 7.921875 18.96875 7.980469 L 19.621094 8.324219 C 19.730469 8.382812 19.769531 8.515625 19.714844 8.621094 C 19.65625 8.730469 19.523438 8.769531 19.417969 8.714844 Z M 18.402344 9.046875 C 18.304688 8.980469 18.277344 8.84375 18.34375 8.742188 C 18.410156 8.640625 18.546875 8.613281 18.648438 8.683594 L 19.441406 9.21875 C 19.542969 9.289062 19.570312 9.421875 19.503906 9.523438 C 19.433594 9.625 19.300781 9.652344 19.199219 9.585938 Z M 17.925781 9.636719 C 17.835938 9.550781 17.835938 9.410156 17.917969 9.324219 C 18.003906 9.238281 18.140625 9.234375 18.230469 9.320312 L 18.902344 9.980469 C 18.988281 10.0625 18.988281 10.203125 18.90625 10.289062 C 18.820312 10.378906 18.683594 10.378906 18.59375 10.292969 Z M 17.296875 10.066406 C 17.234375 9.960938 17.269531 9.828125 17.371094 9.765625 C 17.476562 9.703125 17.613281 9.738281 17.671875 9.84375 L 18.230469 10.789062 C 18.292969 10.894531 18.257812 11.027344 18.152344 11.089844 C 18.050781 11.152344 17.914062 11.117188 17.851562 11.011719 Z M 16.578125 10.320312 C 16.546875 10.203125 16.613281 10.082031 16.730469 10.046875 C 16.847656 10.015625 16.96875 10.082031 17 10.203125 L 17.296875 11.257812 C 17.328125 11.375 17.261719 11.5 17.144531 11.53125 C 17.027344 11.5625 16.90625 11.496094 16.875 11.378906 Z M 15.820312 10.378906 C 15.820312 10.257812 15.917969 10.15625 16.035156 10.15625 C 16.15625 10.152344 16.257812 10.25 16.257812 10.375 L 16.273438 11.472656 C 16.273438 11.59375 16.175781 11.691406 16.054688 11.695312 C 15.933594 11.695312 15.835938 11.597656 15.835938 11.476562 Z M 17.300781 2.730469 C 17.246094 2.34375 17.09375 2.0625 16.890625 1.871094 C 16.664062 1.65625 16.367188 1.554688 16.082031 1.554688 C 16.066406 1.554688 16.042969 1.554688 16.019531 1.554688 C 16.011719 1.558594 16.003906 1.558594 15.996094 1.554688 C 15.972656 1.554688 15.949219 1.554688 15.933594 1.554688 C 15.65625 1.554688 15.382812 1.652344 15.171875 1.863281 C 14.976562 2.054688 14.835938 2.339844 14.789062 2.734375 C 14.8125 2.722656 14.832031 2.710938 14.855469 2.703125 C 15.222656 2.542969 15.632812 2.464844 16.042969 2.464844 C 16.457031 2.464844 16.867188 2.542969 17.230469 2.703125 C 17.253906 2.710938 17.277344 2.722656 17.300781 2.730469 Z M 24.328125 4.089844 C 24.328125 4.164062 24.265625 4.226562 24.191406 4.222656 C 24.113281 4.222656 24.054688 4.160156 24.054688 4.085938 C 24.058594 3.921875 23.964844 3.75 23.824219 3.613281 C 23.675781 3.476562 23.480469 3.375 23.277344 3.359375 C 23.199219 3.351562 23.144531 3.285156 23.148438 3.210938 C 23.15625 3.132812 23.21875 3.078125 23.296875 3.082031 C 23.566406 3.105469 23.824219 3.234375 24.011719 3.414062 C 24.207031 3.601562 24.335938 3.847656 24.328125 4.089844 Z M 19.863281 4.785156 C 19.792969 4.753906 19.757812 4.675781 19.785156 4.605469 C 19.816406 4.535156 19.894531 4.5 19.964844 4.527344 C 20.097656 4.582031 20.238281 4.648438 20.378906 4.710938 C 20.847656 4.925781 21.324219 5.144531 22.039062 5.164062 C 22.117188 5.164062 22.175781 5.226562 22.171875 5.304688 C 22.171875 5.378906 22.109375 5.441406 22.03125 5.4375 C 21.261719 5.417969 20.757812 5.1875 20.265625 4.960938 C 20.132812 4.902344 20.003906 4.84375 19.863281 4.785156 Z M 22.101562 6.449219 C 21.191406 6.628906 20.375 6.171875 19.621094 5.75 C 19.023438 5.414062 18.472656 5.105469 18.007812 5.230469 C 18.160156 5.503906 18.347656 5.792969 18.546875 6.078125 C 19.042969 5.730469 19.957031 6.398438 20.628906 6.886719 C 20.902344 7.085938 21.125 7.25 21.195312 7.269531 C 21.277344 7.289062 21.363281 7.285156 21.453125 7.261719 C 21.589844 7.222656 21.730469 7.136719 21.84375 7.019531 C 21.957031 6.898438 22.042969 6.75 22.082031 6.59375 C 22.09375 6.546875 22.101562 6.496094 22.101562 6.449219 Z M 18.804688 6.433594 C 19.246094 7.023438 19.691406 7.523438 19.914062 7.671875 C 19.96875 7.707031 20.027344 7.734375 20.089844 7.746094 C 20.203125 7.769531 20.324219 7.761719 20.433594 7.722656 C 20.535156 7.683594 20.621094 7.621094 20.671875 7.542969 C 20.683594 7.523438 20.695312 7.503906 20.703125 7.484375 C 20.601562 7.414062 20.492188 7.332031 20.371094 7.246094 C 19.8125 6.839844 19.042969 6.277344 18.804688 6.433594 Z M 17.746094 4.703125 C 17.761719 4.746094 17.78125 4.789062 17.800781 4.832031 C 18.457031 4.59375 19.117188 4.964844 19.832031 5.363281 C 20.667969 5.832031 21.589844 6.347656 22.566406 5.816406 L 22.574219 5.808594 C 22.703125 5.738281 23.089844 5.527344 23.246094 5.484375 C 24.128906 5.25 24.609375 4.851562 24.804688 4.414062 C 24.90625 4.183594 24.929688 3.945312 24.894531 3.707031 C 24.855469 3.46875 24.753906 3.238281 24.605469 3.03125 C 24.296875 2.601562 23.792969 2.300781 23.25 2.300781 C 22.1875 2.300781 20.832031 2.925781 19.707031 3.441406 C 19.042969 3.75 18.453125 4.019531 18.027344 4.117188 C 18 4.121094 17.972656 4.128906 17.945312 4.144531 C 17.863281 4.175781 17.789062 4.230469 17.746094 4.304688 C 17.699219 4.375 17.679688 4.46875 17.707031 4.589844 C 17.714844 4.625 17.726562 4.660156 17.746094 4.703125 Z M 3.792969 13.097656 C 2.851562 13.117188 1.972656 12.726562 1.300781 12.175781 C 0.625 11.621094 0.15625 10.890625 0.03125 10.242188 C 0.0117188 10.140625 0.00390625 10.042969 0 9.941406 C 0 9.847656 0.0546875 9.765625 0.136719 9.734375 C 0.550781 9.566406 0.980469 9.515625 1.40625 9.558594 C 2.046875 9.617188 2.667969 9.882812 3.183594 10.273438 C 3.703125 10.660156 4.117188 11.175781 4.339844 11.738281 C 4.433594 11.972656 4.492188 12.179688 4.511719 12.425781 C 4.53125 12.671875 4.546875 12.738281 4.726562 12.914062 C 4.980469 13.164062 5.167969 13.320312 5.441406 13.535156 C 5.277344 13.28125 5.152344 13 5.066406 12.707031 C 4.921875 12.175781 4.910156 11.605469 5.070312 11.046875 C 5.199219 10.597656 5.4375 10.160156 5.800781 9.765625 L 5.808594 9.761719 C 5.894531 9.675781 6.03125 9.675781 6.117188 9.765625 C 6.683594 10.34375 7.03125 11.074219 7.21875 11.839844 C 7.449219 12.765625 7.445312 13.746094 7.324219 14.550781 C 7.320312 14.566406 7.320312 14.578125 7.316406 14.59375 C 7.3125 14.597656 7.3125 14.605469 7.308594 14.609375 C 7.527344 14.816406 7.765625 15.003906 8.011719 15.160156 C 8.585938 15.460938 9.171875 15.738281 9.765625 16.019531 C 9.394531 15.652344 9.125 15.191406 8.984375 14.683594 C 8.839844 14.15625 8.828125 13.582031 8.988281 13.027344 C 9.113281 12.578125 9.355469 12.136719 9.71875 11.746094 L 9.722656 11.742188 C 9.808594 11.65625 9.949219 11.65625 10.035156 11.742188 C 10.601562 12.320312 10.949219 13.054688 11.136719 13.820312 C 11.363281 14.71875 11.363281 15.667969 11.25 16.460938 C 11.628906 16.804688 12.066406 17.101562 12.488281 17.367188 C 13.746094 18.054688 14.949219 18.859375 16 19.953125 C 17.050781 18.859375 18.253906 18.054688 19.511719 17.367188 C 19.933594 17.101562 20.371094 16.804688 20.75 16.460938 C 20.636719 15.667969 20.636719 14.71875 20.863281 13.820312 C 21.050781 13.054688 21.398438 12.320312 21.964844 11.742188 C 22.050781 11.65625 22.1875 11.65625 22.273438 11.742188 L 22.28125 11.746094 C 22.644531 12.136719 22.882812 12.578125 23.011719 13.027344 C 23.171875 13.582031 23.160156 14.15625 23.011719 14.683594 C 22.871094 15.191406 22.605469 15.652344 22.234375 16.019531 C 22.824219 15.738281 23.414062 15.460938 23.984375 15.160156 C 24.234375 15.003906 24.472656 14.816406 24.691406 14.609375 C 24.6875 14.605469 24.6875 14.597656 24.683594 14.59375 C 24.679688 14.578125 24.675781 14.566406 24.675781 14.550781 C 24.550781 13.746094 24.550781 12.765625 24.777344 11.839844 C 24.96875 11.074219 25.316406 10.34375 25.882812 9.765625 C 25.96875 9.675781 26.105469 9.675781 26.191406 9.761719 L 26.199219 9.765625 C 26.5625 10.160156 26.800781 10.597656 26.929688 11.046875 C 27.089844 11.605469 27.078125 12.175781 26.929688 12.707031 C 26.847656 13 26.722656 13.28125 26.558594 13.535156 C 26.824219 13.328125 27.011719 13.167969 27.253906 12.933594 C 27.476562 12.71875 27.457031 12.707031 27.488281 12.410156 C 27.511719 12.183594 27.570312 11.957031 27.660156 11.738281 C 27.882812 11.175781 28.296875 10.660156 28.816406 10.273438 C 29.332031 9.882812 29.953125 9.617188 30.59375 9.558594 C 31.019531 9.515625 31.449219 9.570312 31.863281 9.734375 C 31.945312 9.769531 32 9.847656 32 9.945312 C 31.996094 10.042969 31.988281 10.144531 31.96875 10.242188 C 31.84375 10.890625 31.375 11.621094 30.699219 12.175781 C 30.027344 12.730469 29.148438 13.117188 28.207031 13.097656 C 27.851562 13.089844 27.847656 12.976562 27.597656 13.214844 C 27.015625 13.769531 26.386719 14.246094 25.722656 14.671875 C 25.84375 14.671875 25.960938 14.683594 26.082031 14.699219 C 26.621094 14.769531 27.152344 14.988281 27.59375 15.351562 C 27.957031 15.648438 28.261719 16.039062 28.472656 16.523438 C 28.476562 16.527344 28.480469 16.535156 28.480469 16.542969 C 28.523438 16.652344 28.46875 16.78125 28.355469 16.828125 C 27.605469 17.121094 26.800781 17.152344 26.023438 17.027344 C 25.078125 16.871094 24.179688 16.480469 23.492188 16.042969 C 23.484375 16.039062 23.476562 16.03125 23.46875 16.027344 C 23.445312 16.007812 23.425781 15.984375 23.414062 15.957031 C 23.3125 16 23.207031 16.042969 23.109375 16.089844 C 22.933594 16.175781 22.757812 16.257812 22.582031 16.339844 C 22.519531 16.371094 22.457031 16.402344 22.394531 16.433594 C 22.347656 16.457031 22.300781 16.480469 22.171875 16.542969 C 22.15625 16.550781 22.140625 16.554688 22.125 16.558594 C 21.878906 16.675781 21.632812 16.792969 21.382812 16.910156 C 21.488281 16.914062 21.589844 16.921875 21.691406 16.9375 C 22.234375 17.007812 22.761719 17.226562 23.207031 17.589844 C 23.566406 17.882812 23.871094 18.277344 24.085938 18.761719 C 24.089844 18.765625 24.089844 18.773438 24.09375 18.777344 C 24.136719 18.890625 24.082031 19.019531 23.96875 19.0625 C 23.214844 19.359375 22.410156 19.390625 21.636719 19.265625 C 20.703125 19.113281 19.816406 18.726562 19.128906 18.296875 C 18.75 18.449219 18.382812 18.625 18.035156 18.796875 C 17.425781 19.230469 16.84375 19.714844 16.304688 20.28125 C 17.304688 21.410156 18.148438 22.832031 18.742188 24.714844 C 18.78125 24.828125 18.714844 24.953125 18.601562 24.988281 C 18.484375 25.027344 18.363281 24.960938 18.328125 24.847656 C 17.761719 23.058594 16.953125 21.695312 16 20.609375 C 15.046875 21.695312 14.242188 23.058594 13.671875 24.847656 C 13.636719 24.960938 13.515625 25.027344 13.398438 24.988281 C 13.285156 24.953125 13.21875 24.828125 13.257812 24.714844 C 13.851562 22.832031 14.699219 21.410156 15.699219 20.28125 C 15.15625 19.714844 14.574219 19.230469 13.964844 18.796875 C 13.617188 18.625 13.25 18.449219 12.871094 18.296875 C 12.183594 18.726562 11.296875 19.113281 10.363281 19.265625 C 9.589844 19.390625 8.785156 19.359375 8.03125 19.0625 C 7.917969 19.019531 7.863281 18.890625 7.90625 18.777344 C 7.910156 18.773438 7.914062 18.765625 7.914062 18.761719 C 8.128906 18.277344 8.433594 17.882812 8.792969 17.589844 C 9.238281 17.226562 9.765625 17.007812 10.308594 16.9375 C 10.410156 16.921875 10.515625 16.914062 10.617188 16.910156 C 10.371094 16.792969 10.121094 16.675781 9.875 16.558594 C 9.859375 16.554688 9.84375 16.550781 9.828125 16.542969 C 9.699219 16.480469 9.652344 16.457031 9.605469 16.433594 C 9.542969 16.402344 9.480469 16.371094 9.417969 16.339844 C 9.242188 16.257812 9.066406 16.175781 8.890625 16.089844 C 8.792969 16.042969 8.691406 16 8.585938 15.957031 C 8.574219 15.984375 8.554688 16.007812 8.53125 16.027344 C 8.523438 16.03125 8.515625 16.039062 8.507812 16.042969 C 7.820312 16.480469 6.921875 16.871094 5.976562 17.027344 C 5.203125 17.15625 4.394531 17.121094 3.644531 16.828125 C 3.53125 16.78125 3.476562 16.652344 3.519531 16.542969 C 3.523438 16.535156 3.523438 16.527344 3.527344 16.523438 C 3.742188 16.039062 4.046875 15.648438 4.40625 15.351562 C 4.851562 14.988281 5.378906 14.769531 5.917969 14.699219 C 6.039062 14.683594 6.15625 14.671875 6.277344 14.671875 C 5.613281 14.246094 4.980469 13.769531 4.398438 13.207031 C 4.15625 12.976562 4.144531 13.089844 3.796875 13.097656 Z M 3.785156 12.65625 C 3.882812 12.65625 3.984375 12.648438 4.082031 12.636719 C 4.082031 12.386719 4.027344 12.140625 3.933594 11.898438 C 3.742188 11.414062 3.375 10.964844 2.921875 10.621094 C 2.464844 10.28125 1.921875 10.046875 1.367188 9.996094 C 1.058594 9.964844 0.75 9.992188 0.449219 10.089844 C 0.453125 10.113281 0.457031 10.136719 0.460938 10.160156 C 0.566406 10.710938 0.980469 11.339844 1.578125 11.832031 C 2.179688 12.328125 2.957031 12.675781 3.785156 12.65625 Z M 5.902344 16.59375 C 6.6875 16.464844 7.4375 16.160156 8.050781 15.804688 C 8.023438 15.78125 7.996094 15.753906 7.96875 15.730469 C 7.085938 15.457031 6.160156 15.421875 5.316406 16.078125 C 5.257812 16.121094 5.171875 16.113281 5.125 16.050781 C 5.078125 15.992188 5.089844 15.90625 5.148438 15.859375 C 5.832031 15.328125 6.550781 15.203125 7.253906 15.289062 C 6.851562 15.128906 6.40625 15.074219 5.972656 15.132812 C 5.511719 15.195312 5.058594 15.382812 4.679688 15.691406 C 4.421875 15.902344 4.199219 16.171875 4.027344 16.496094 C 4.632812 16.683594 5.277344 16.695312 5.902344 16.59375 Z M 10.292969 18.828125 C 11.027344 18.710938 11.734375 18.433594 12.320312 18.109375 C 11.449219 17.855469 10.539062 17.839844 9.703125 18.488281 C 9.644531 18.535156 9.558594 18.523438 9.511719 18.460938 C 9.464844 18.402344 9.476562 18.316406 9.535156 18.269531 C 10.367188 17.625 11.246094 17.570312 12.09375 17.761719 C 11.976562 17.683594 11.851562 17.617188 11.722656 17.558594 C 11.300781 17.371094 10.824219 17.308594 10.363281 17.371094 C 9.898438 17.433594 9.449219 17.621094 9.066406 17.929688 C 8.8125 18.140625 8.589844 18.40625 8.414062 18.734375 C 9.023438 18.921875 9.667969 18.933594 10.292969 18.832031 Z M 6.925781 14.195312 C 7.003906 13.5 6.984375 12.703125 6.792969 11.945312 C 6.640625 11.328125 6.378906 10.734375 5.964844 10.25 C 5.738281 10.539062 5.582031 10.847656 5.488281 11.167969 C 5.355469 11.644531 5.363281 12.132812 5.488281 12.585938 C 5.617188 13.039062 5.859375 13.449219 6.199219 13.769531 C 6.269531 13.835938 6.339844 13.894531 6.417969 13.953125 C 6.339844 13.828125 6.265625 13.695312 6.199219 13.5625 C 5.851562 12.863281 5.679688 12.035156 5.769531 11.09375 C 5.773438 11.019531 5.84375 10.960938 5.917969 10.96875 C 5.992188 10.976562 6.046875 11.042969 6.039062 11.117188 C 5.957031 12.003906 6.117188 12.78125 6.445312 13.4375 C 6.578125 13.710938 6.742188 13.964844 6.925781 14.195312 Z M 10.855469 16.050781 C 10.917969 15.386719 10.890625 14.640625 10.710938 13.921875 C 10.558594 13.304688 10.292969 12.714844 9.882812 12.226562 C 9.652344 12.515625 9.5 12.828125 9.40625 13.148438 C 9.273438 13.621094 9.28125 14.113281 9.40625 14.566406 C 9.53125 15.015625 9.777344 15.429688 10.117188 15.75 C 10.230469 15.855469 10.355469 15.953125 10.488281 16.035156 C 10.082031 15.484375 9.835938 14.820312 9.914062 13.988281 C 9.921875 13.910156 9.988281 13.855469 10.0625 13.863281 C 10.140625 13.871094 10.195312 13.9375 10.1875 14.011719 C 10.109375 14.847656 10.398438 15.507812 10.855469 16.050781 Z M 30.6875 10.84375 C 30.746094 10.765625 30.796875 10.683594 30.847656 10.601562 L 30.613281 10.460938 C 30.566406 10.535156 30.519531 10.609375 30.464844 10.679688 Z M 28.875 12.167969 C 28.960938 12.132812 29.046875 12.09375 29.132812 12.054688 L 29.015625 11.804688 C 28.933594 11.84375 28.851562 11.878906 28.769531 11.914062 Z M 29.867188 11.636719 C 29.945312 11.582031 30.019531 11.523438 30.09375 11.464844 L 29.921875 11.25 C 29.851562 11.304688 29.78125 11.359375 29.710938 11.410156 Z M 24.742188 15.289062 C 25.445312 15.203125 26.164062 15.328125 26.847656 15.859375 C 26.90625 15.90625 26.917969 15.992188 26.871094 16.050781 C 26.828125 16.113281 26.742188 16.125 26.679688 16.078125 C 25.835938 15.421875 24.910156 15.457031 24.027344 15.730469 C 24 15.753906 23.972656 15.78125 23.949219 15.808594 C 24.558594 16.160156 25.308594 16.464844 26.09375 16.59375 C 26.71875 16.695312 27.363281 16.683594 27.96875 16.496094 C 27.796875 16.171875 27.574219 15.902344 27.316406 15.695312 C 26.9375 15.382812 26.484375 15.195312 26.023438 15.132812 C 25.585938 15.074219 25.144531 15.128906 24.738281 15.289062 Z M 19.902344 17.761719 C 20.75 17.570312 21.628906 17.625 22.460938 18.269531 C 22.519531 18.316406 22.53125 18.402344 22.484375 18.460938 C 22.441406 18.523438 22.355469 18.535156 22.292969 18.488281 C 21.457031 17.839844 20.546875 17.855469 19.675781 18.109375 C 20.265625 18.433594 20.96875 18.710938 21.707031 18.828125 C 22.332031 18.933594 22.976562 18.921875 23.582031 18.730469 C 23.410156 18.40625 23.183594 18.140625 22.929688 17.929688 C 22.546875 17.617188 22.097656 17.433594 21.632812 17.371094 C 21.171875 17.308594 20.699219 17.371094 20.273438 17.558594 C 20.144531 17.617188 20.019531 17.683594 19.902344 17.761719 Z M 25.070312 14.195312 C 25.253906 13.964844 25.417969 13.710938 25.554688 13.4375 C 25.878906 12.78125 26.039062 12.003906 25.957031 11.121094 C 25.949219 11.042969 26.003906 10.976562 26.082031 10.96875 C 26.15625 10.960938 26.222656 11.019531 26.230469 11.09375 C 26.316406 12.035156 26.144531 12.863281 25.800781 13.5625 C 25.730469 13.699219 25.660156 13.828125 25.578125 13.953125 C 25.65625 13.898438 25.730469 13.835938 25.796875 13.769531 C 26.136719 13.453125 26.382812 13.039062 26.507812 12.585938 C 26.632812 12.136719 26.640625 11.644531 26.507812 11.167969 C 26.417969 10.851562 26.261719 10.539062 26.03125 10.25 C 25.621094 10.734375 25.355469 11.328125 25.203125 11.945312 C 25.015625 12.703125 24.992188 13.5 25.070312 14.195312 Z M 21.140625 16.050781 C 21.597656 15.507812 21.890625 14.851562 21.808594 14.011719 C 21.804688 13.9375 21.859375 13.871094 21.933594 13.863281 C 22.007812 13.855469 22.074219 13.910156 22.082031 13.988281 C 22.160156 14.820312 21.917969 15.484375 21.507812 16.035156 C 21.644531 15.953125 21.765625 15.855469 21.882812 15.75 C 22.21875 15.429688 22.464844 15.015625 22.589844 14.566406 C 22.714844 14.113281 22.726562 13.621094 22.589844 13.148438 C 22.5 12.828125 22.34375 12.515625 22.117188 12.226562 C 21.703125 12.714844 21.4375 13.304688 21.285156 13.921875 C 21.109375 14.640625 21.078125 15.386719 21.140625 16.050781 Z M 21.140625 16.050781 "/>
</g>
</svg>
