<svg data-v-fde0c5aa="" xmlns="http://www.w3.org/2000/svg" viewBox="0 0 300 300" class="font"><!----><defs data-v-fde0c5aa=""><!----></defs><rect data-v-fde0c5aa="" fill="#FEF2E5" x="0" y="0" width="300px" height="300px" class="logo-background-square"></rect><defs data-v-fde0c5aa=""><linearGradient data-v-fde0c5aa="" gradientTransform="rotate(25)" id="be3a0cae-ea8d-41d7-9876-b7c7f61a034e" x1="0%" y1="0%" x2="100%" y2="0%"><stop data-v-fde0c5aa="" offset="0%" stop-color="#EB4C00" stop-opacity="1"></stop><stop data-v-fde0c5aa="" offset="100%" stop-color="#F2A900" stop-opacity="1"></stop></linearGradient></defs><g data-v-fde0c5aa="" id="19f3f40c-b6bb-4a9e-9c66-2c31b5024778" fill="url(#be3a0cae-ea8d-41d7-9876-b7c7f61a034e)" transform="matrix(3.3955856905579327,0,0,3.3955856905579327,38.43803055400838,122.47900135477978)"><path d="M2.87 3.74L2.87 7.50L3.98 7.50L3.98 7.50Q4.59 7.50 4.98 6.86L4.98 6.86L4.98 6.86Q5.33 6.30 5.33 5.58L5.33 5.58L5.33 5.58Q5.33 4.35 4.50 3.84L4.50 3.84L4.50 3.85L4.50 3.85Q4.29 3.74 3.71 3.74L3.71 3.74L2.87 3.74ZM2.87 12.30L4.02 12.30L4.02 12.30Q4.75 12.30 5.04 12.14L5.04 12.14L5.04 12.14Q5.44 11.90 5.71 11.31L5.71 11.31L5.71 11.31Q5.85 11.03 5.91 10.76L5.91 10.76L5.91 10.76Q5.97 10.49 5.97 10.21L5.97 10.21L5.97 10.21Q5.97 9.63 5.69 9.06L5.69 9.06L5.69 9.06Q5.39 8.46 4.92 8.25L4.92 8.25L4.92 8.25Q4.79 8.20 4.58 8.18L4.58 8.18L4.58 8.18Q4.38 8.15 4.09 8.15L4.09 8.15L2.87 8.15L2.87 12.30ZM0.46 3.04L3.55 3.04L3.55 3.04Q4.16 3.04 4.61 3.08L4.61 3.08L4.61 3.08Q5.06 3.12 5.37 3.21L5.37 3.21L5.37 3.21Q5.84 3.36 6.19 3.66L6.19 3.66L6.19 3.66Q6.54 3.96 6.76 4.39L6.76 4.39L6.76 4.39Q6.90 4.68 6.97 4.98L6.97 4.98L6.97 4.98Q7.04 5.28 7.04 5.60L7.04 5.60L7.04 5.60Q7.04 6.28 6.77 6.80L6.77 6.80L6.77 6.80Q6.49 7.31 6.00 7.66L6.00 7.66L6.00 7.66Q6.70 7.94 7.15 8.55L7.15 8.55L7.15 8.55Q7.42 8.91 7.55 9.33L7.55 9.33L7.55 9.33Q7.68 9.74 7.68 10.21L7.68 10.21L7.68 10.21Q7.68 11.53 6.79 12.30L6.79 12.30L6.79 12.30Q5.95 13.01 4.62 13.01L4.62 13.01L0.46 13.01L0.46 12.30L1.16 12.30L1.16 3.74L0.46 3.74L0.46 3.04ZM10.97 3.74L10.97 7.50L12.08 7.50L12.08 7.50Q12.69 7.50 13.08 6.86L13.08 6.86L13.08 6.86Q13.43 6.30 13.43 5.58L13.43 5.58L13.43 5.58Q13.43 4.35 12.60 3.84L12.60 3.84L12.61 3.85L12.61 3.85Q12.39 3.74 11.81 3.74L11.81 3.74L10.97 3.74ZM10.97 12.30L12.12 12.30L12.12 12.30Q12.85 12.30 13.14 12.14L13.14 12.14L13.14 12.14Q13.54 11.90 13.82 11.31L13.82 11.31L13.82 11.31Q13.95 11.03 14.01 10.76L14.01 10.76L14.01 10.76Q14.07 10.49 14.07 10.21L14.07 10.21L14.07 10.21Q14.07 9.63 13.79 9.06L13.79 9.06L13.79 9.06Q13.49 8.46 13.02 8.25L13.02 8.25L13.02 8.25Q12.89 8.20 12.68 8.18L12.68 8.18L12.68 8.18Q12.48 8.15 12.19 8.15L12.19 8.15L10.97 8.15L10.97 12.30ZM8.57 3.04L11.65 3.04L11.65 3.04Q12.26 3.04 12.71 3.08L12.71 3.08L12.71 3.08Q13.16 3.12 13.47 3.21L13.47 3.21L13.47 3.21Q13.95 3.36 14.29 3.66L14.29 3.66L14.29 3.66Q14.64 3.96 14.86 4.39L14.86 4.39L14.86 4.39Q15.00 4.68 15.07 4.98L15.07 4.98L15.07 4.98Q15.14 5.28 15.14 5.60L15.14 5.60L15.14 5.60Q15.14 6.28 14.87 6.80L14.87 6.80L14.87 6.80Q14.59 7.31 14.10 7.66L14.10 7.66L14.10 7.66Q14.80 7.94 15.25 8.55L15.25 8.55L15.25 8.55Q15.52 8.91 15.65 9.33L15.65 9.33L15.65 9.33Q15.78 9.74 15.78 10.21L15.78 10.21L15.78 10.21Q15.78 11.53 14.89 12.30L14.89 12.30L14.89 12.30Q14.05 13.01 12.72 13.01L12.72 13.01L8.57 13.01L8.57 12.30L9.26 12.30L9.26 3.74L8.57 3.74L8.57 3.04ZM16.98 5.74L16.71 3.78L16.71 3.78Q16.78 3.03 17.40 3.04L17.40 3.04L17.40 3.04Q18.02 3.04 18.08 3.79L18.08 3.79L17.81 5.75L16.98 5.74ZM19.99 11.08L19.99 11.44L19.99 11.44Q20.13 11.70 20.28 11.90L20.28 11.90L20.28 11.90Q20.43 12.11 20.58 12.22L20.58 12.22L20.58 12.22Q20.95 12.52 21.51 12.52L21.51 12.52L21.51 12.52Q22.05 12.52 22.44 12.20L22.44 12.20L22.44 12.20Q22.84 11.85 22.84 11.35L22.84 11.35L22.84 11.35Q22.84 11.07 22.61 10.83L22.61 10.83L22.61 10.83Q22.38 10.58 22.00 10.39L22.00 10.39L22.00 10.39Q21.79 10.29 21.58 10.21L21.58 10.21L21.58 10.21Q21.37 10.12 21.16 10.02L21.16 10.02L21.16 10.02Q20.94 9.93 20.72 9.84L20.72 9.84L20.72 9.84Q20.51 9.75 20.30 9.65L20.30 9.65L20.30 9.65Q19.31 9.05 19.31 8.00L19.31 8.00L19.31 8.00Q19.31 7.55 19.54 7.19L19.54 7.19L19.54 7.19Q19.76 6.82 20.17 6.54L20.17 6.54L20.17 6.54Q20.53 6.32 20.95 6.20L20.95 6.20L20.95 6.20Q21.37 6.08 21.83 6.08L21.83 6.08L21.83 6.08Q21.96 6.08 22.17 6.13L22.17 6.13L22.17 6.13Q22.38 6.17 22.62 6.25L22.62 6.25L22.62 6.25Q22.84 6.32 23.03 6.36L23.03 6.36L23.03 6.36Q23.21 6.40 23.32 6.40L23.32 6.40L23.32 6.40Q23.49 6.40 23.58 6.27L23.58 6.27L24.18 6.27L24.18 8.20L23.52 8.20L23.52 7.83L23.52 7.83Q22.96 6.76 22.07 6.76L22.07 6.76L22.07 6.76Q21.55 6.76 21.22 7.08L21.22 7.08L21.22 7.08Q20.88 7.38 20.88 7.89L20.88 7.89L20.88 7.89Q20.88 8.33 21.29 8.55L21.29 8.55L21.29 8.54L21.29 8.54Q21.40 8.60 21.79 8.75L21.79 8.75L21.79 8.75Q22.17 8.91 22.84 9.15L22.84 9.15L22.84 9.15Q24.36 9.73 24.36 11.25L24.36 11.25L24.36 11.25Q24.36 11.76 24.09 12.16L24.09 12.16L24.09 12.16Q23.83 12.55 23.38 12.80L23.38 12.80L23.38 12.80Q23.02 12.96 22.55 13.06L22.55 13.06L22.55 13.06Q22.07 13.17 21.55 13.17L21.55 13.17L21.55 13.17Q21.42 13.17 21.24 13.13L21.24 13.13L21.24 13.13Q21.06 13.10 20.82 13.02L20.82 13.02L20.82 13.02Q20.60 12.94 20.44 12.91L20.44 12.91L20.44 12.91Q20.28 12.88 20.18 12.88L20.18 12.88L20.18 12.88Q20.01 12.88 19.92 13.01L19.92 13.01L19.32 13.01L19.32 11.08L19.99 11.08ZM32.25 3.74L32.25 7.50L33.36 7.50L33.36 7.50Q33.97 7.50 34.36 6.86L34.36 6.86L34.36 6.86Q34.71 6.30 34.71 5.58L34.71 5.58L34.71 5.58Q34.71 4.35 33.88 3.84L33.88 3.84L33.89 3.85L33.89 3.85Q33.67 3.74 33.09 3.74L33.09 3.74L32.25 3.74ZM32.25 12.30L33.40 12.30L33.40 12.30Q34.13 12.30 34.42 12.14L34.42 12.14L34.42 12.14Q34.82 11.90 35.10 11.31L35.10 11.31L35.10 11.31Q35.23 11.03 35.29 10.76L35.29 10.76L35.29 10.76Q35.35 10.49 35.35 10.21L35.35 10.21L35.35 10.21Q35.35 9.63 35.07 9.06L35.07 9.06L35.07 9.06Q34.77 8.46 34.30 8.25L34.30 8.25L34.30 8.25Q34.17 8.20 33.96 8.18L33.96 8.18L33.96 8.18Q33.76 8.15 33.47 8.15L33.47 8.15L32.25 8.15L32.25 12.30ZM29.85 3.04L32.93 3.04L32.93 3.04Q33.54 3.04 33.99 3.08L33.99 3.08L33.99 3.08Q34.44 3.12 34.75 3.21L34.75 3.21L34.75 3.21Q35.23 3.36 35.57 3.66L35.57 3.66L35.57 3.66Q35.92 3.96 36.14 4.39L36.14 4.39L36.14 4.39Q36.28 4.68 36.35 4.98L36.35 4.98L36.35 4.98Q36.42 5.28 36.42 5.60L36.42 5.60L36.42 5.60Q36.42 6.28 36.15 6.80L36.15 6.80L36.15 6.80Q35.88 7.31 35.38 7.66L35.38 7.66L35.38 7.66Q36.08 7.94 36.53 8.55L36.53 8.55L36.53 8.55Q36.80 8.91 36.93 9.33L36.93 9.33L36.93 9.33Q37.06 9.74 37.06 10.21L37.06 10.21L37.06 10.21Q37.06 11.53 36.17 12.30L36.17 12.30L36.17 12.30Q35.33 13.01 34.00 13.01L34.00 13.01L29.85 13.01L29.85 12.30L30.54 12.30L30.54 3.74L29.85 3.74L29.85 3.04ZM38.24 6.53L40.00 6.53L40.00 12.61L40.67 12.61L40.67 12.74L38.24 12.74L38.24 12.61L38.94 12.61L38.94 6.67L38.24 6.67L38.24 6.53ZM38.58 4.03L38.58 4.03L38.58 4.03Q38.58 3.84 38.65 3.68L38.65 3.68L38.65 3.68Q38.72 3.51 38.84 3.39L38.84 3.39L38.84 3.39Q38.96 3.27 39.12 3.20L39.12 3.20L39.12 3.20Q39.29 3.12 39.47 3.12L39.47 3.12L39.47 3.12Q39.66 3.12 39.82 3.20L39.82 3.20L39.82 3.20Q39.98 3.27 40.10 3.39L40.10 3.39L40.10 3.39Q40.22 3.51 40.29 3.68L40.29 3.68L40.29 3.68Q40.37 3.84 40.37 4.03L40.37 4.03L40.37 4.03Q40.37 4.21 40.29 4.38L40.29 4.38L40.29 4.38Q40.22 4.54 40.10 4.66L40.10 4.66L40.10 4.66Q39.98 4.78 39.82 4.85L39.82 4.85L39.82 4.85Q39.66 4.92 39.47 4.92L39.47 4.92L39.47 4.92Q39.29 4.92 39.12 4.85L39.12 4.85L39.12 4.85Q38.96 4.78 38.84 4.66L38.84 4.66L38.84 4.66Q38.72 4.54 38.65 4.38L38.65 4.38L38.65 4.38Q38.58 4.21 38.58 4.03ZM42.81 11.08L42.81 11.44L42.81 11.44Q42.96 11.70 43.11 11.90L43.11 11.90L43.11 11.90Q43.26 12.11 43.40 12.22L43.40 12.22L43.40 12.22Q43.78 12.52 44.33 12.52L44.33 12.52L44.33 12.52Q44.88 12.52 45.26 12.20L45.26 12.20L45.26 12.20Q45.66 11.85 45.66 11.35L45.66 11.35L45.66 11.35Q45.66 11.07 45.44 10.83L45.44 10.83L45.44 10.83Q45.21 10.58 44.83 10.39L44.83 10.39L44.83 10.39Q44.62 10.29 44.41 10.21L44.41 10.21L44.41 10.21Q44.19 10.12 43.98 10.02L43.98 10.02L43.98 10.02Q43.76 9.93 43.55 9.84L43.55 9.84L43.55 9.84Q43.33 9.75 43.12 9.65L43.12 9.65L43.12 9.65Q42.14 9.05 42.14 8.00L42.14 8.00L42.14 8.00Q42.14 7.55 42.36 7.19L42.36 7.19L42.36 7.19Q42.59 6.82 43.00 6.54L43.00 6.54L43.00 6.54Q43.35 6.32 43.77 6.20L43.77 6.20L43.77 6.20Q44.19 6.08 44.66 6.08L44.66 6.08L44.66 6.08Q44.79 6.08 45.00 6.13L45.00 6.13L45.00 6.13Q45.21 6.17 45.45 6.25L45.45 6.25L45.45 6.25Q45.66 6.32 45.85 6.36L45.85 6.36L45.85 6.36Q46.04 6.40 46.15 6.40L46.15 6.40L46.15 6.40Q46.31 6.40 46.41 6.27L46.41 6.27L47.00 6.27L47.00 8.20L46.34 8.20L46.34 7.83L46.34 7.83Q45.79 6.76 44.90 6.76L44.90 6.76L44.90 6.76Q44.38 6.76 44.04 7.08L44.04 7.08L44.04 7.08Q43.71 7.38 43.71 7.89L43.71 7.89L43.71 7.89Q43.71 8.33 44.12 8.55L44.12 8.55L44.12 8.54L44.12 8.54Q44.23 8.60 44.61 8.75L44.61 8.75L44.61 8.75Q44.99 8.91 45.66 9.15L45.66 9.15L45.66 9.15Q47.18 9.73 47.18 11.25L47.18 11.25L47.18 11.25Q47.18 11.76 46.92 12.16L46.92 12.16L46.92 12.16Q46.66 12.55 46.20 12.80L46.20 12.80L46.20 12.80Q45.85 12.96 45.37 13.06L45.37 13.06L45.37 13.06Q44.90 13.17 44.38 13.17L44.38 13.17L44.38 13.17Q44.25 13.17 44.07 13.13L44.07 13.13L44.07 13.13Q43.89 13.10 43.65 13.02L43.65 13.02L43.65 13.02Q43.43 12.94 43.27 12.91L43.27 12.91L43.27 12.91Q43.11 12.88 43.00 12.88L43.00 12.88L43.00 12.88Q42.83 12.88 42.75 13.01L42.75 13.01L42.14 13.01L42.14 11.08L42.81 11.08ZM51.76 6.27L51.76 6.93L50.59 6.93L50.59 11.39L50.59 11.39Q50.59 11.99 50.80 12.15L50.80 12.15L50.80 12.15Q50.98 12.29 51.76 12.35L51.76 12.35L51.76 13.02L51.76 13.02Q51.10 13.00 50.65 12.95L50.65 12.95L50.65 12.95Q50.21 12.91 49.98 12.84L49.98 12.84L49.98 12.84Q49.01 12.53 49.01 11.55L49.01 11.55L49.01 6.93L47.97 6.93L47.97 6.27L47.97 6.27Q48.80 6.27 49.38 5.61L49.38 5.61L49.38 5.61Q49.64 5.33 49.83 4.97L49.83 4.97L49.83 4.97Q50.02 4.61 50.16 4.16L50.16 4.16L50.59 4.16L50.59 6.27L51.76 6.27ZM52.55 6.27L54.80 6.27L54.80 6.55L54.80 6.55Q55.39 6.15 56.23 6.15L56.23 6.15L56.23 6.15Q57.41 6.15 58.24 6.88L58.24 6.88L57.27 7.99L57.27 7.99Q56.82 6.83 56.07 6.83L56.07 6.83L56.07 6.83Q55.32 6.83 54.80 7.49L54.80 7.49L54.80 7.49Q54.81 8.74 54.81 9.92L54.81 9.92L54.81 9.92Q54.82 11.09 54.82 12.35L54.82 12.35L55.51 12.35L55.51 13.01L52.55 13.01L52.55 12.35L53.24 12.35L53.24 6.93L52.55 6.93L52.55 6.27ZM60.46 9.67L60.46 9.67L60.46 9.67Q60.46 10.78 60.78 11.51L60.78 11.51L60.78 11.51Q61.19 12.50 62.06 12.50L62.06 12.50L62.06 12.50Q62.49 12.50 62.82 12.24L62.82 12.24L62.82 12.24Q63.14 11.99 63.35 11.52L63.35 11.52L63.35 11.52Q63.50 11.15 63.58 10.68L63.58 10.68L63.58 10.68Q63.66 10.22 63.66 9.69L63.66 9.69L63.66 9.69Q63.66 8.58 63.35 7.81L63.35 7.81L63.35 7.81Q62.92 6.77 62.07 6.77L62.07 6.77L62.07 6.77Q61.63 6.77 61.30 7.04L61.30 7.04L61.30 7.04Q60.98 7.31 60.77 7.78L60.77 7.78L60.77 7.78Q60.63 8.15 60.55 8.63L60.55 8.63L60.55 8.63Q60.46 9.12 60.46 9.67ZM65.25 9.64L65.25 9.64L65.25 9.64Q65.25 11.51 64.44 12.34L64.44 12.34L64.44 12.34Q63.65 13.15 61.80 13.15L61.80 13.15L61.80 13.15Q58.87 13.15 58.87 9.64L58.87 9.64L58.87 9.64Q58.87 6.11 62.23 6.11L62.23 6.11L62.23 6.11Q65.25 6.11 65.25 9.64Z"></path></g><!----><!----></svg>